<svg xmlns="http://www.w3.org/2000/svg" width="45" height="44" viewBox="0 0 45 44">
  <g id="Group_3" data-name="Group 3" transform="translate(-331 -962)">
    <ellipse id="Ellipse_1" data-name="Ellipse 1" cx="22.5" cy="22" rx="22.5" ry="22" transform="translate(331 962)" fill="#2daae1"/>
    <path id="twitter-brands" d="M28.712,54.559c.02.284.02.569.02.853,0,8.67-6.6,18.66-18.66,18.66A18.534,18.534,0,0,1,0,71.128a13.568,13.568,0,0,0,1.584.081,13.135,13.135,0,0,0,8.142-2.8,6.57,6.57,0,0,1-6.132-4.548,8.271,8.271,0,0,0,1.239.1,6.937,6.937,0,0,0,1.726-.223A6.559,6.559,0,0,1,1.3,57.3v-.081a6.605,6.605,0,0,0,2.965.832A6.568,6.568,0,0,1,2.234,49.28a18.642,18.642,0,0,0,13.523,6.863,7.4,7.4,0,0,1-.162-1.5,6.565,6.565,0,0,1,11.351-4.487,12.913,12.913,0,0,0,4.163-1.584,6.541,6.541,0,0,1-2.883,3.614A13.148,13.148,0,0,0,32,51.168a14.1,14.1,0,0,1-3.289,3.391Z" transform="translate(337.5 924.082)" fill="#fff"/>
  </g>
</svg>
