<svg id="pancakeswap-cake-logo" xmlns="http://www.w3.org/2000/svg" width="47.495" height="47.944" viewBox="0 0 47.495 47.944">
  <path id="Path_10" data-name="Path 10" d="M8.54,7.491a6.277,6.277,0,1,1,12.436-1.2v7.791c.9,0,1.8-.15,2.7-.15a14.536,14.536,0,0,1,2.547.15V6.293A6.331,6.331,0,0,1,32.512,0,6.48,6.48,0,0,1,38.8,7.491l-1.648,9.139C43,19.178,47.495,23.672,47.495,29.216v3.446c0,4.645-3,8.54-7.341,11.087a31.27,31.27,0,0,1-16.481,4.2,31.27,31.27,0,0,1-16.481-4.2C3,41.2,0,37.307,0,32.662V29.216c0-5.544,4.345-10.038,10.188-12.585ZM34.909,17.829,36.857,7.042A4.428,4.428,0,0,0,32.512,1.8a4.348,4.348,0,0,0-4.345,4.345v9.888a8.543,8.543,0,0,0-1.948-.15c-.9,0-1.648-.15-2.547-.15a16.284,16.284,0,0,0-2.7.15c-.6,0-1.348.15-1.948.15V6.293a4.32,4.32,0,1,0-8.54.9l1.948,10.787c-6.293,2.4-10.488,6.592-10.488,11.387v3.446c0,7.341,9.739,13.334,21.725,13.334S45.4,40.153,45.4,32.812V29.366C45.547,24.422,41.352,20.226,34.909,17.829Z" fill="#633001" fill-rule="evenodd"/>
  <path id="Path_11" data-name="Path 11" d="M44.849,22.946c0,7.341-9.739,13.334-21.725,13.334S1.4,30.287,1.4,22.946V19.5H45v3.446Z" transform="translate(0.698 9.716)" fill="#fedc90"/>
  <path id="Path_12" data-name="Path 12" d="M9.79,6.544a4.32,4.32,0,1,1,8.54-.9v9.888a45.374,45.374,0,0,1,4.645-.3c1.5,0,3,.15,4.495.3V5.645A4.348,4.348,0,0,1,31.815,1.3,4.508,4.508,0,0,1,36.16,6.544L34.212,17.331c6.293,2.4,10.638,6.592,10.638,11.387,0,7.341-9.739,13.334-21.725,13.334S1.4,36.06,1.4,28.718c0-4.794,4.2-8.99,10.488-11.387Z" transform="translate(0.698 0.648)" fill="#d1884f" fill-rule="evenodd"/>
  <path id="Path_13" data-name="Path 13" d="M13.394,20.1c0,1.948-1.049,3.6-2.4,3.6s-2.4-1.648-2.4-3.6,1.049-3.6,2.4-3.6S13.394,18.148,13.394,20.1Z" transform="translate(4.285 8.221)" fill="#633001"/>
  <path id="Path_14" data-name="Path 14" d="M24.494,20.1c0,1.948-1.049,3.6-2.4,3.6s-2.4-1.648-2.4-3.6,1.049-3.6,2.4-3.6S24.494,18.148,24.494,20.1Z" transform="translate(9.816 8.221)" fill="#633001"/>
</svg>
