<svg xmlns="http://www.w3.org/2000/svg" width="59.581" height="66.552" viewBox="0 0 59.581 66.552">
  <g id="uniswap-uni-logo" transform="translate(0 -6)">
    <g id="Group_1" data-name="Group 1" transform="translate(0 6)">
      <path id="Path_1" data-name="Path 1" d="M64.828,43.691c-.743-.1-.779-.128-.425-.16a12.878,12.878,0,0,1,3.327.256A14.5,14.5,0,0,1,75.02,48.2l.637.672.92-.128A21.648,21.648,0,0,1,87.9,50.027a15.083,15.083,0,0,1,2.548,1.344,2.861,2.861,0,0,1,.248.9,4.956,4.956,0,0,1-.389,3.488c-.283.48-.283.608-.106,1.024a1.08,1.08,0,0,0,.956.544c.849,0,1.734-1.216,2.159-2.912l.177-.672.319.32A12.184,12.184,0,0,1,97.246,60.2l.071.48L97,60.267a5.679,5.679,0,0,0-1.7-1.632c-1.2-.736-2.477-.96-5.84-1.12a26.261,26.261,0,0,1-6.477-.9c-2.9-.864-4.388-1.984-7.821-6.112a30.462,30.462,0,0,0-3.433-3.648A12.5,12.5,0,0,0,64.828,43.691Z" transform="translate(-41.468 -28.182)" fill="#fff"/>
      <path id="Path_2" data-name="Path 2" d="M131.774,49.8a6.364,6.364,0,0,1,.637-2.752,2.153,2.153,0,0,1,.319-.544c.035,0-.035.224-.142.48a5.548,5.548,0,0,0-.142,2.816c.248,1.44.354,1.632,2.053,3.2.779.736,1.7,1.664,2.053,2.048l.6.7-.6-.512a21.392,21.392,0,0,0-2.831-2.016c-.248-.128-.283-.128-.46.032-.142.128-.177.32-.177,1.248a6.316,6.316,0,0,1-.779,3.264c-.283.48-.319.384-.071-.16a4.248,4.248,0,0,0,.212-1.984c0-2.784-.354-3.456-2.513-4.576-.531-.288-1.451-.7-1.982-.928A8.206,8.206,0,0,1,127,49.7a17.111,17.111,0,0,1,2.973.8c1.239.448,1.451.48,1.593.448C131.668,50.852,131.739,50.6,131.774,49.8Z" transform="translate(-82.048 -30.292)" fill="#fff"/>
      <path id="Path_3" data-name="Path 3" d="M65.976,55.652a10.54,10.54,0,0,1-2.23-6.88l.071-.672.354.064a8.87,8.87,0,0,1,2.265.768c1.416.768,2.053,1.824,2.654,4.448.177.768.425,1.664.531,1.952a11.272,11.272,0,0,0,1.416,2.3c.389.512.142.768-.743.7A7.325,7.325,0,0,1,65.976,55.652Z" transform="translate(-41.165 -31.37)" fill="#fff"/>
      <path id="Path_4" data-name="Path 4" d="M118.085,95c-7.007-2.56-9.485-4.768-9.485-8.512,0-.544.035-.992.035-.992a6.637,6.637,0,0,1,.6.416c1.416,1.024,3.008,1.472,7.432,2.048a33.674,33.674,0,0,1,5.415,1.024c4.282,1.28,6.937,3.9,7.574,7.456a11.727,11.727,0,0,1-.212,4,7.684,7.684,0,0,1-1.133,2.3c-.035,0-.106-.16-.106-.416a5.057,5.057,0,0,0-2.053-3.616C124.668,97.564,122.756,96.7,118.085,95Z" transform="translate(-70.164 -55.389)" fill="#fff"/>
      <path id="Path_5" data-name="Path 5" d="M93.935,114.624a6.984,6.984,0,0,0-.354-1.344l-.177-.48.319.352a5.509,5.509,0,0,1,1.133,1.856A3.643,3.643,0,0,1,95.1,116.8a3.725,3.725,0,0,1-.248,1.728,5.742,5.742,0,0,1-1.486,2.144,8.953,8.953,0,0,1-5.309,2.112c-.425.032-1.628.128-2.69.192a22.76,22.76,0,0,0-6.016.9c-.212.064-.425.128-.46.1a8.205,8.205,0,0,1,1.911-1.024,20.871,20.871,0,0,1,5.309-1.28,26.511,26.511,0,0,0,3.15-.576C92.767,120.1,94.5,117.632,93.935,114.624Z" transform="translate(-50.969 -73.508)" fill="#fff"/>
      <path id="Path_6" data-name="Path 6" d="M128.862,122.9a6.824,6.824,0,0,1-.637-5.184c.071-.16.142-.32.212-.32a1.6,1.6,0,0,1,.5.224c.425.256,1.309.7,3.574,1.824a18.036,18.036,0,0,1,5.627,3.744,7.567,7.567,0,0,1,1.876,3.872,11.5,11.5,0,0,1-.177,3.808,9.609,9.609,0,0,1-5.132,6.144,5.178,5.178,0,0,1-.743.32,2.4,2.4,0,0,1,.319-.7,5.8,5.8,0,0,0,.319-4.96,19.856,19.856,0,0,0-2.831-4.608A30.075,30.075,0,0,1,128.862,122.9Z" transform="translate(-82.675 -75.327)" fill="#fff"/>
      <path id="Path_7" data-name="Path 7" d="M54.643,156.807a20.159,20.159,0,0,1,8.812-3.84,14.477,14.477,0,0,1,4.565.16,7.994,7.994,0,0,1,4.459,2.592,8.981,8.981,0,0,1,1.628,4.352c.142.864.319,1.76.354,1.952a4.219,4.219,0,0,0,1.557,2.528c1.1.736,3.008.768,4.884.128a2.578,2.578,0,0,1,.6-.16,6.54,6.54,0,0,1-4.07,1.472,5.212,5.212,0,0,1-4.318-2.4,17.387,17.387,0,0,1-1.168-2.112c-1.239-2.592-1.876-3.36-3.327-4.224a4.76,4.76,0,0,0-4.141-.352,2.3,2.3,0,0,0-.92,3.744,3.755,3.755,0,0,0,2.017.96,2.092,2.092,0,0,0,2.442-1.952,1.54,1.54,0,0,0-1.168-1.568c-1.133-.448-2.371.064-2.336,1.056,0,.416.212.672.672.864.283.128.283.128.071.1a1.148,1.148,0,0,1-.46-2.08,2.7,2.7,0,0,1,3.787.736,3.051,3.051,0,0,1,.071,2.176,3.416,3.416,0,0,1-4.035,1.728,5.854,5.854,0,0,1-3.079-1.888c-2.477-2.3-3.433-2.752-6.972-3.232l-.672-.1Z" transform="translate(-34.823 -99.438)" fill="#fff"/>
      <path id="Path_8" data-name="Path 8" d="M1.2,1.49C9.447,11.3,22.152,26.55,22.789,27.382c.531.693.319,1.352-.566,1.837a5.5,5.5,0,0,1-2.017.555,2.58,2.58,0,0,1-1.7-.728c-.319-.312-1.7-2.288-4.813-7.036C11.322,18.37,9.3,15.355,9.27,15.32c-.142-.069-.142-.069,4.176,7.487,2.725,4.748,3.61,6.447,3.61,6.655,0,.451-.142.693-.708,1.317-.956,1.04-1.38,2.218-1.7,4.679C14.3,38.2,13.34,40.137,10.614,43.43a14.257,14.257,0,0,0-2.23,3.085,5.766,5.766,0,0,0-.708,2.773,8.506,8.506,0,0,0,.46,3.4,11.488,11.488,0,0,0,1.7,3.258,8,8,0,0,1,1.309,2.53c0,.277.071.277,1.345,0,3.044-.693,5.556-1.872,6.937-3.327a3.1,3.1,0,0,0,1.062-2.634,2.776,2.776,0,0,0-.248-1.456A6.287,6.287,0,0,0,17.763,48.7c-1.911-1.282-2.725-2.322-2.937-3.709-.177-1.178.035-1.976,1.1-4.159a12.237,12.237,0,0,0,1.557-5.476c.106-1.456.283-2.045.708-2.5a2.664,2.664,0,0,1,1.947-.8,6.558,6.558,0,0,0,3.893-1.56,3.231,3.231,0,0,0,1.2-2.53l.035-.8-.46-.485C23.143,24.817.1,0,0,0-.038,0,.528.659,1.2,1.49ZM12.066,50.778a1.413,1.413,0,0,0-.46-1.906c-.6-.381-1.522-.208-1.522.312a.355.355,0,0,0,.283.347c.319.173.354.347.106.728s-.248.728.071.971A1.022,1.022,0,0,0,12.066,50.778Z" transform="translate(0.004 0)" fill="#fff" fill-rule="evenodd"/>
      <path id="Path_9" data-name="Path 9" d="M70.979,93.734a2.973,2.973,0,0,0-1.911,1.888,2.515,2.515,0,0,0,.177,1.728c.389.448.743.576,1.734.576,1.947,0,3.61-.768,3.787-1.7.177-.768-.566-1.824-1.593-2.3A3.952,3.952,0,0,0,70.979,93.734Zm2.265,1.6c.283-.384.177-.8-.354-1.088-.956-.544-2.407-.1-2.407.736,0,.416.743.864,1.451.864A2.057,2.057,0,0,0,73.244,95.334Z" transform="translate(-44.576 -61.349)" fill="#fff" fill-rule="evenodd"/>
    </g>
  </g>
</svg>
